<svg xmlns:xlink="http://www.w3.org/1999/xlink" xmlns="http://www.w3.org/2000/svg" aria-label="Amazon logo" class="icon  grafana-com-auth-1kzv8le" width="32" height="32" role=""><defs><svg xmlns="http://www.w3.org/2000/svg" viewBox="0 0 32 32" id="icon">
  <title>Amazon logo</title>
  <path fill="#ffffff" fill-rule="evenodd" d="m18.5976,13.46636c0,1.63426 0.03847,2.99262 -0.78397,4.44515c-0.66591,1.18192 -1.72579,1.90753 -2.89976,1.90753c-1.61039,0 -2.54956,-1.2257 -2.54956,-3.04037c0,-3.57098 3.20353,-4.22097 6.23461,-4.22097l0,0.90866l-0.00133,0zm4.22627,10.22079c-0.27724,0.25071 -0.67918,0.26663 -0.98825,0.09816c-1.39549,-1.15672 -1.64222,-1.69263 -2.4063,-2.79364c-2.30017,2.34395 -3.92913,3.047 -6.90981,3.047c-3.52853,0 -6.27574,-2.17681 -6.27574,-6.53308c0,-3.40251 1.84518,-5.71595 4.47035,-6.85012c2.27497,-1.00019 5.45197,-1.18192 7.88214,-1.45253l0,-0.54387c0,-0.99886 0.07959,-2.17814 -0.50805,-3.04302c-0.51071,-0.76805 -1.491,-1.08774 -2.35456,-1.08774c-1.59845,0 -3.02047,0.81979 -3.36934,2.5164c-0.07163,0.37806 -0.34622,0.75213 -0.72826,0.77203l-4.06046,-0.44173c-0.34357,-0.07428 -0.72693,-0.35285 -0.62611,-0.8755c0.93387,-4.92933 5.38565,-6.41767 9.37315,-6.41767c2.03885,0 4.70514,0.54387 6.31155,2.08793c2.04018,1.90487 1.84651,4.44647 1.84651,7.21358l0,6.53043c0,1.96457 0.81713,2.82547 1.5812,3.88536c0.27061,0.38071 0.32765,0.8357 -0.01327,1.11295c-0.85825,0.71764 -2.37977,2.03885 -3.21414,2.78435l-0.01061,-0.00929zm4.72106,2.63711c-3.64526,1.95263 -7.60756,2.89313 -11.21302,2.89313c-5.34187,0 -10.51527,-1.84783 -14.6991,-4.91606c-0.36744,-0.26796 -0.63805,0.20428 -0.33295,0.55183c3.88005,4.41198 9.00172,7.06501 14.69247,7.06501c4.06046,0 8.77356,-1.61039 12.02617,-4.63484c0.53856,-0.5001 0.07694,-1.25356 -0.47357,-0.95907zm0.88876,2.93955c-0.12071,0.30112 0.13796,0.42448 0.41122,0.195c1.7762,-1.4857 2.23518,-4.5977 1.87171,-5.04606c-0.36081,-0.44571 -3.46485,-0.8304 -5.35912,0.5001c-0.29183,0.20428 -0.24143,0.48683 0.08224,0.44704c1.06784,-0.12735 3.4423,-0.41387 3.86413,0.13c0.42316,0.54387 -0.47091,2.77772 -0.87019,3.77393z"></path>
</svg></defs><use xlink:href="#icon"></use></svg>