<svg xmlns:xlink="http://www.w3.org/1999/xlink" xmlns="http://www.w3.org/2000/svg" aria-label="GitHub logo" class="icon  grafana-com-auth-1kzv8le" width="32" height="32" role=""><defs><svg xmlns="http://www.w3.org/2000/svg" viewBox="0 0 32 32" id="icon">
    <title>GitHub logo</title>
    <path fill="#f8fafc" d="m16.00011,0.55657c-8.74838,0 -15.83411,7.08574 -15.83411,15.83406c0,7.0066 4.53248,12.92452 10.82652,15.02255c0.7917,0.1385 1.08858,-0.3365 1.08858,-0.75218c0,-0.37601 -0.01978,-1.62302 -0.01978,-2.94904c-3.97831,0.73234 -5.00752,-0.96985 -5.32419,-1.86053c-0.17814,-0.45517 -0.95005,-1.86053 -1.62299,-2.23653c-0.55419,-0.29684 -1.3459,-1.02918 -0.0198,-1.04902c1.24693,-0.01983 2.1376,1.14802 2.43449,1.62302c1.42507,2.39487 3.7012,1.72186 4.61167,1.30635c0.13855,-1.02935 0.55419,-1.72202 1.00941,-2.11786c-3.52307,-0.39584 -7.20449,-1.76153 -7.20449,-7.81806c0,-1.72196 0.61358,-3.14703 1.62299,-4.25541c-0.15834,-0.39584 -0.71253,-2.01883 0.15834,-4.19601c0,0 1.3261,-0.41566 4.35436,1.62299c1.26673,-0.35627 2.61262,-0.53441 3.95851,-0.53441c1.34585,0 2.69187,0.17814 3.95856,0.53441c3.02821,-2.05843 4.3544,-1.62299 4.3544,-1.62299c0.87085,2.17718 0.31667,3.80017 0.15834,4.19601c1.00935,1.10838 1.62286,2.51365 1.62286,4.25541c0,6.07637 -3.70122,7.42222 -7.22427,7.81806c0.57401,0.49484 1.06885,1.44485 1.06885,2.92921c0,2.11786 -0.01983,3.82005 -0.01983,4.3544c0,0.41567 0.297,0.91051 1.08868,0.75218c6.25443,-2.09803 10.78683,-8.03578 10.78683,-15.02255c0,-8.74833 -7.08561,-15.83406 -15.8339,-15.83406z"></path>
</svg></defs><g>
    <title>GitHub logo</title>
    <path fill="#f8fafc" d="m16.00011,0.55657c-8.74838,0 -15.83411,7.08574 -15.83411,15.83406c0,7.0066 4.53248,12.92452 10.82652,15.02255c0.7917,0.1385 1.08858,-0.3365 1.08858,-0.75218c0,-0.37601 -0.01978,-1.62302 -0.01978,-2.94904c-3.97831,0.73234 -5.00752,-0.96985 -5.32419,-1.86053c-0.17814,-0.45517 -0.95005,-1.86053 -1.62299,-2.23653c-0.55419,-0.29684 -1.3459,-1.02918 -0.0198,-1.04902c1.24693,-0.01983 2.1376,1.14802 2.43449,1.62302c1.42507,2.39487 3.7012,1.72186 4.61167,1.30635c0.13855,-1.02935 0.55419,-1.72202 1.00941,-2.11786c-3.52307,-0.39584 -7.20449,-1.76153 -7.20449,-7.81806c0,-1.72196 0.61358,-3.14703 1.62299,-4.25541c-0.15834,-0.39584 -0.71253,-2.01883 0.15834,-4.19601c0,0 1.3261,-0.41566 4.35436,1.62299c1.26673,-0.35627 2.61262,-0.53441 3.95851,-0.53441c1.34585,0 2.69187,0.17814 3.95856,0.53441c3.02821,-2.05843 4.3544,-1.62299 4.3544,-1.62299c0.87085,2.17718 0.31667,3.80017 0.15834,4.19601c1.00935,1.10838 1.62286,2.51365 1.62286,4.25541c0,6.07637 -3.70122,7.42222 -7.22427,7.81806c0.57401,0.49484 1.06885,1.44485 1.06885,2.92921c0,2.11786 -0.01983,3.82005 -0.01983,4.3544c0,0.41567 0.297,0.91051 1.08868,0.75218c6.25443,-2.09803 10.78683,-8.03578 10.78683,-15.02255c0,-8.74833 -7.08561,-15.83406 -15.8339,-15.83406z"></path>
</g></svg>