<svg xmlns:xlink="http://www.w3.org/1999/xlink" xmlns="http://www.w3.org/2000/svg" aria-label="Google logo" class="icon  grafana-com-auth-1kzv8le" width="32" height="32" role=""><defs><svg xmlns="http://www.w3.org/2000/svg" viewBox="0 0 32 32" id="icon">
  <title>Google logo</title>
  <path fill="#f8fafc" d="m31.63468,16.36631c0,-1.0842 -0.0879,-2.17429 -0.2754,-3.24091l-15.04431,0l0,6.14198l8.61518,0c-0.35763,1.98077 -1.50618,3.7331 -3.18816,4.84674l0,3.98511l5.13968,0c3.0182,-2.7779 4.75299,-6.88032 4.75299,-11.73291z"></path>
  <path fill="#f8fafc" d="m16.31609,31.94964c4.30164,0 7.92947,-1.41243 10.57251,-3.85042l-5.13968,-3.98511c-1.42997,0.97275 -3.27606,1.52372 -5.42696,1.52372c-4.16103,0 -7.68913,-2.80731 -8.95502,-6.58153l-5.30384,0l0,4.10827c2.70759,5.38584 8.22243,8.78507 14.25299,8.78507z"></path>
  <path fill="#f8fafc" d="m7.35996,19.05701c-0.66811,-1.98082 -0.66811,-4.1258 0,-6.10669l0,-4.10827l-5.29799,0c-2.26219,4.5068 -2.26219,9.81658 0,14.32324l5.29799,-4.10827z"></path>
  <path fill="#f8fafc" d="m16.31605,6.36331c2.27394,-0.03518 4.47163,0.82049 6.11851,2.39112l4.55362,-4.55369c-2.88334,-2.70759 -6.71037,-4.19619 -10.67214,-4.1493c-6.03054,0 -11.54536,3.39915 -14.25296,8.79091l5.29798,4.10827c1.26002,-3.78008 4.79397,-6.58731 8.95498,-6.58731z"></path>
</svg></defs><use xlink:href="#icon"></use></svg>