<svg width="33" height="32" viewBox="0 0 33 32" fill="none" xmlns="http://www.w3.org/2000/svg">
  <g clip-path="url(#clip0_856_19916)">
    <path d="M7.41369 20.1558C7.41369 21.9952 5.92707 23.4818 4.0877 23.4818C2.24833 23.4818 0.761719 21.9952 0.761719 20.1558C0.761719 18.3164 2.24833 16.8298 4.0877 16.8298H7.41369V20.1558ZM9.07668 20.1558C9.07668 18.3164 10.5633 16.8298 12.4027 16.8298C14.242 16.8298 15.7286 18.3164 15.7286 20.1558V28.4708C15.7286 30.3101 14.242 31.7968 12.4027 31.7968C10.5633 31.7968 9.07668 30.3101 9.07668 28.4708V20.1558Z" fill="white"/>
    <path d="M12.4025 6.80236C10.5631 6.80236 9.07649 5.31574 9.07649 3.47637C9.07649 1.637 10.5631 0.150391 12.4025 0.150391C14.2418 0.150391 15.7285 1.637 15.7285 3.47637V6.80236H12.4025ZM12.4025 8.49055C14.2418 8.49055 15.7285 9.97716 15.7285 11.8165C15.7285 13.6559 14.2418 15.1425 12.4025 15.1425H4.06231C2.22294 15.1425 0.736328 13.6559 0.736328 11.8165C0.736328 9.97716 2.22294 8.49055 4.06231 8.49055H12.4025Z" fill="white"/>
    <path d="M25.732 11.8165C25.732 9.97716 27.2186 8.49055 29.0579 8.49055C30.8973 8.49055 32.3839 9.97716 32.3839 11.8165C32.3839 13.6559 30.8973 15.1425 29.0579 15.1425H25.732V11.8165ZM24.069 11.8165C24.069 13.6559 22.5823 15.1425 20.743 15.1425C18.9036 15.1425 17.417 13.6559 17.417 11.8165V3.47637C17.417 1.637 18.9036 0.150391 20.743 0.150391C22.5823 0.150391 24.069 1.637 24.069 3.47637V11.8165Z" fill="white"/>
    <path d="M20.743 25.1448C22.5823 25.1448 24.069 26.6314 24.069 28.4708C24.069 30.3101 22.5823 31.7968 20.743 31.7968C18.9036 31.7968 17.417 30.3101 17.417 28.4708V25.1448H20.743ZM20.743 23.4818C18.9036 23.4818 17.417 21.9952 17.417 20.1558C17.417 18.3164 18.9036 16.8298 20.743 16.8298H29.0831C30.9225 16.8298 32.4091 18.3164 32.4091 20.1558C32.4091 21.9952 30.9225 23.4818 29.0831 23.4818H20.743Z" fill="white"/>
  </g>
  <defs>
    <clipPath id="clip0_856_19916">
      <rect width="32" height="31.9983" fill="white" transform="translate(0.560059 -0.000732422)"/>
    </clipPath>
  </defs>
</svg>
